<svg width="300" height="60" viewBox="0 0 300 60" fill="none" xmlns="http://www.w3.org/2000/svg">
  <!-- Logo Icon -->
  <g transform="scale(1.2) translate(8,10)">
    <!-- Background circle -->
    <circle cx="20" cy="20" r="18" fill="#EBF5FF" opacity="0.3"/>
    
    <!-- Modern Angular Scales of Justice - Single Bold Line -->
    <path d="M20 6 L20 14 L8 14 L8 18 L5 18 L5 26 L11 26 L11 18 L8 18 M20 14 L32 14 L32 18 L29 18 L29 26 L35 26 L35 18 L32 18 M20 26 L20 30 L16 30 L16 32 L24 32 L24 30 L20 30" 
          stroke="#2563EB" 
          stroke-width="3" 
          stroke-linejoin="miter" 
          stroke-linecap="square" 
          fill="none"/>
    
    <!-- Angular accent elements -->
    <rect x="5" y="24" width="6" height="2" fill="#3b82f6"/>
    <rect x="29" y="24" width="6" height="2" fill="#FCD34D"/>
  </g>
  
  <!-- Company Name -->
  <text x="70" y="35" font-family="Inter, -apple-system, sans-serif" font-size="28" font-weight="700" fill="#111827">
    ZeroDolg
  </text>
  
  <!-- Tagline -->
  <text x="70" y="52" font-family="Inter, -apple-system, sans-serif" font-size="10" font-weight="400" fill="#6b7280" letter-spacing="2.8">
    К ФИНАНСОВОЙ СВОБОДЕ
  </text>
</svg>
