<svg xmlns="http://www.w3.org/2000/svg" viewBox="0 0 32 32" width="32" height="32" fill="none" stroke="currentColor" stroke-width="2" stroke-linecap="round" stroke-linejoin="round">
  <!-- Handshake representing guarantee freedom -->
  <path d="M21 24h5c1.5 0 3-1.5 3-3v-3c0-1.5-1.5-3-3-3h-5v9zM11 24H6c-1.5 0-3-1.5-3-3v-3c0-1.5 1.5-3 3-3h5v9z"/>
  <path d="M11 15V10c0-3 2-5 5-5s5 2 5 5v5"/>
  <!-- Broken chain symbols -->
  <line x1="13" y1="13" x2="19" y2="13"/>
  <line x1="8" y1="18" x2="13" y2="18"/>
  <line x1="19" y1="18" x2="24" y2="18"/>
</svg>
