<?xml version="1.0" encoding="UTF-8"?>
<svg xmlns="http://www.w3.org/2000/svg" width="1920" height="1080" viewBox="0 0 1920 1080" preserveAspectRatio="xMidYMid slice">
  <title>Фон — Материалы для самообучения (акварель, книга)</title>
  <desc>Открытая книга в центре с волнами знаний, плавный переход тёплых и холодных тонов, акварельная текстура.</desc>
  <defs>
    <linearGradient id="bgGradientLearn" x1="0%" y1="0%" x2="100%" y2="0%">
      <stop offset="0%" stop-color="#f2b264" />
      <stop offset="40%" stop-color="#f6e1b2" />
      <stop offset="60%" stop-color="#cfe7f6" />
      <stop offset="100%" stop-color="#6eb4e5" />
    </linearGradient>

    <filter id="paperLearn" x="-20%" y="-20%" width="140%" height="140%">
      <feTurbulence type="fractalNoise" baseFrequency="0.85" numOctaves="1" seed="11"/>
      <feColorMatrix type="matrix" values="1 0 0 0 0  0 1 0 0 0  0 0 1 0 0  0 0 0 0.06 0"/>
      <feBlend in2="SourceGraphic" mode="multiply"/>
    </filter>

    <filter id="softLearn" x="-10%" y="-10%" width="120%" height="120%">
      <feGaussianBlur stdDeviation="7"/>
    </filter>

    <!-- Символ книги -->
    <g id="book">
      <path d="M -280,40 Q -140,-30 0,10 Q 140,-30 280,40 L 280,200 Q 140,140 0,170 Q -140,140 -280,200 Z"/>
      <path d="M 0,10 L 0,170" stroke-width="6"/>
    </g>
  </defs>

  <rect x="0" y="0" width="1920" height="1080" fill="url(#bgGradientLearn)" filter="url(#paperLearn)"/>

  <!-- Волны знаний -->
  <g filter="url(#softLearn)">
    <path d="M 0,760 C 240,700 540,720 760,760 C 980,800 1240,820 1520,780 L 1920,760 L 1920,1080 L 0,1080 Z" fill="#f4d6a1" opacity="0.45"/>
    <path d="M 0,820 C 300,780 600,820 880,840 C 1100,856 1400,860 1680,820 L 1920,820 L 1920,1080 L 0,1080 Z" fill="#a9d4ee" opacity="0.45"/>
    <path d="M 0,880 C 260,860 560,900 820,920 C 1120,944 1400,940 1700,900 L 1920,900 L 1920,1080 L 0,1080 Z" fill="#78bde7" opacity="0.32"/>
  </g>

  <!-- Книга -->
  <g transform="translate(960,540)" filter="url(#softLearn)">
    <use href="#book" fill="#ffffff" opacity="0.9" stroke="#eacb94"/>
    <use href="#book" fill="none" stroke="#f0b76a" opacity="0.6"/>
  </g>

  <!-- Мягкие пятна акварели -->
  <g opacity="0.35" filter="url(#softLearn)">
    <ellipse cx="560" cy="420" rx="360" ry="160" fill="#f6d59a"/>
    <ellipse cx="1360" cy="460" rx="380" ry="170" fill="#9fd0ee"/>
  </g>
</svg>

