<?xml version="1.0" encoding="UTF-8"?>
<svg xmlns="http://www.w3.org/2000/svg" width="1920" height="1080" viewBox="0 0 1920 1080" preserveAspectRatio="xMidYMid slice">
  <title>Фон — Наша команда (акварельные силуэты)</title>
  <desc>Множественные силуэты профессионалов на фоне плавного перехода от тёплых оранжевых к холодным голубым оттенкам, акварельный стиль.</desc>
  <defs>
    <linearGradient id="bgGradientTeam" x1="0%" y1="0%" x2="100%" y2="0%">
      <stop offset="0%" stop-color="#f2b264" />
      <stop offset="40%" stop-color="#f6e1b2" />
      <stop offset="60%" stop-color="#cfe7f6" />
      <stop offset="100%" stop-color="#6eb4e5" />
    </linearGradient>

    <filter id="softTeam" x="-10%" y="-10%" width="120%" height="120%">
      <feGaussianBlur stdDeviation="8"/>
    </filter>

    <filter id="paperTeam" x="-20%" y="-20%" width="140%" height="140%">
      <feTurbulence type="fractalNoise" baseFrequency="0.8" numOctaves="1" seed="7"/>
      <feColorMatrix type="matrix" values="1 0 0 0 0  0 1 0 0 0  0 0 1 0 0  0 0 0 0.05 0"/>
      <feBlend in2="SourceGraphic" mode="multiply"/>
    </filter>

    <!-- Символ человека (деловой силуэт) -->
    <g id="pro" opacity="0.65">
      <circle cx="0" cy="-35" r="18" />
      <path d="M -26,-12 Q 0,-22 26,-12 L 26,58 Q 0,70 -26,58 Z" />
      <rect x="-6" y="-12" width="12" height="12" rx="2" />
    </g>
  </defs>

  <rect x="0" y="0" width="1920" height="1080" fill="url(#bgGradientTeam)" filter="url(#paperTeam)"/>

  <!-- Тёплая группа слева -->
  <g fill="#f1aa5c" filter="url(#softTeam)">
    <use href="#pro" transform="translate(180,720) scale(1.8)"/>
    <use href="#pro" transform="translate(320,740) scale(1.6)"/>
    <use href="#pro" transform="translate(70,760) scale(1.4)"/>
    <use href="#pro" transform="translate(460,760) scale(1.4)"/>
    <use href="#pro" transform="translate(260,800) scale(1.2)"/>
  </g>

  <!-- Центральная смешанная группа -->
  <g fill="#e9cfa0" filter="url(#softTeam)">
    <use href="#pro" transform="translate(880,720) scale(1.9)"/>
    <use href="#pro" transform="translate(1020,740) scale(1.6)"/>
    <use href="#pro" transform="translate(740,760) scale(1.5)"/>
    <use href="#pro" transform="translate(1180,760) scale(1.4)"/>
  </g>

  <!-- Холодная группа справа -->
  <g fill="#6fb5e6" filter="url(#softTeam)">
    <use href="#pro" transform="translate(1640,720) scale(1.8)"/>
    <use href="#pro" transform="translate(1500,740) scale(1.6)"/>
    <use href="#pro" transform="translate(1780,760) scale(1.4)"/>
    <use href="#pro" transform="translate(1360,760) scale(1.5)"/>
    <use href="#pro" transform="translate(1560,800) scale(1.2)"/>
  </g>

  <!-- Лёгкие мазки акварели поверх -->
  <g opacity="0.35" filter="url(#softTeam)">
    <ellipse cx="520" cy="520" rx="420" ry="190" fill="#f6d59a"/>
    <ellipse cx="1400" cy="520" rx="420" ry="190" fill="#9fd0ee"/>
  </g>
</svg>

